<?xml version="1.0" standalone="no"?>
<!DOCTYPE svg PUBLIC "-//W3C//DTD SVG 20010904//EN"
 "http://www.w3.org/TR/2001/REC-SVG-20010904/DTD/svg10.dtd">
<svg version="1.0" xmlns="http://www.w3.org/2000/svg"
 width="2500.000000pt" height="2500.000000pt" viewBox="0 0 2500.000000 2500.000000"
 preserveAspectRatio="xMidYMid meet">
<metadata>
Created by potrace 1.14, written by Peter Selinger 2001-2017
</metadata>
<g transform="translate(0.000000,2500.000000) scale(0.100000,-0.100000)"
fill="#000000" stroke="none">
<path d="M11955 24970 c-2206 -104 -4237 -736 -6100 -1898 -171 -107 -515
-339 -690 -467 -1226 -894 -2247 -1958 -3080 -3210 -485 -730 -892 -1505
-1208 -2305 -777 -1964 -1042 -4091 -771 -6200 456 -3560 2442 -6755 5449
-8765 2411 -1612 5282 -2328 8185 -2040 977 97 1974 320 2900 647 500 177 897
346 1405 598 2944 1462 5200 4046 6260 7170 742 2189 856 4596 323 6860 -439
1867 -1299 3599 -2522 5080 -441 535 -975 1080 -1491 1524 -1889 1624 -4210
2644 -6665 2930 -231 27 -489 50 -745 66 -215 14 -1026 20 -1250 10z m910
-310 c912 -31 1695 -139 2550 -350 1155 -285 2271 -745 3305 -1362 505 -302
1068 -702 1542 -1096 503 -417 1067 -976 1492 -1477 2227 -2628 3230 -6028
2790 -9455 -228 -1780 -853 -3486 -1837 -5015 -696 -1081 -1609 -2092 -2618
-2900 -1833 -1468 -4019 -2365 -6349 -2605 -388 -40 -621 -52 -1106 -57 -486
-6 -760 2 -1129 33 -2557 209 -4933 1192 -6890 2850 -469 398 -1001 930 -1399
1399 -1511 1783 -2471 3935 -2780 6235 -69 513 -97 907 -103 1483 -6 495 3
773 38 1187 80 959 277 1921 580 2825 1113 3322 3601 6004 6834 7368 1587 669
3359 996 5080 937z"/>
<path d="M12080 24293 c-2014 -73 -3925 -636 -5650 -1665 -218 -130 -675 -432
-879 -581 -1005 -733 -1883 -1611 -2613 -2611 -56 -78 -180 -256 -273 -396
-1106 -1651 -1773 -3555 -1940 -5540 -54 -642 -54 -1369 1 -2010 203 -2400
1140 -4677 2689 -6535 248 -297 390 -452 724 -786 512 -512 918 -858 1474
-1257 2239 -1609 4977 -2379 7737 -2177 1355 99 2648 421 3905 972 220 96 724
346 935 464 2101 1169 3777 2912 4850 5044 1018 2023 1425 4292 1180 6570
-233 2158 -1065 4214 -2403 5939 -509 656 -1113 1284 -1742 1811 -1907 1597
-4216 2541 -6680 2730 -396 30 -941 42 -1315 28z m710 -729 c440 -50 788 -193
1015 -419 88 -87 150 -193 219 -371 125 -325 164 -777 101 -1195 -55 -363
-268 -650 -635 -857 -30 -17 -106 -51 -168 -77 -107 -43 -127 -48 -330 -75
-377 -49 -456 -55 -722 -54 -216 1 -273 4 -374 22 -299 55 -570 186 -771 374
-89 83 -137 150 -206 288 -182 363 -221 827 -118 1395 46 251 119 395 285 556
235 227 599 363 1136 424 142 16 362 12 568 -11z m-4743 -1041 c4 -32 8 -179
7 -328 0 -230 -5 -314 -32 -570 -35 -339 -55 -582 -47 -595 18 -29 308 -181
845 -443 184 -90 398 -199 475 -242 152 -85 355 -213 355 -223 0 -4 -198 -101
-439 -215 l-439 -208 -777 403 -776 403 5 620 c4 341 9 715 12 830 l7 210 391
207 c215 113 394 207 398 207 4 1 10 -25 15 -56z m9116 -77 c45 -25 211 -106
370 -180 563 -265 790 -390 1005 -553 278 -210 516 -493 577 -684 108 -341 53
-744 -160 -1164 -128 -254 -182 -334 -314 -466 -268 -267 -651 -447 -910 -426
-80 7 -260 49 -384 91 -229 77 -506 206 -787 368 -126 72 -702 428 -866 535
-21 13 -8 39 583 1106 333 601 645 1165 695 1255 49 89 94 162 99 162 5 0 46
-20 92 -44z m-9954 -1981 c441 -645 804 -1180 807 -1188 3 -10 -100 -93 -332
-266 -185 -138 -338 -250 -340 -249 -1 2 -363 543 -803 1203 -639 956 -799
1201 -789 1211 15 14 648 464 653 464 2 0 364 -529 804 -1175z m5694 -605
c569 -34 1089 -122 1619 -274 2433 -699 4342 -2611 5043 -5051 601 -2095 243
-4365 -973 -6155 -819 -1207 -1947 -2130 -3282 -2687 -1577 -657 -3368 -740
-5010 -231 -784 243 -1537 625 -2200 1116 -1639 1215 -2709 3057 -2939 5062
-37 322 -46 488 -45 860 0 542 37 930 135 1427 348 1766 1333 3342 2779 4445
873 666 1903 1132 2985 1352 368 74 623 106 1115 139 117 8 619 6 773 -3z
m-9119 -1125 c96 -77 175 -144 175 -148 1 -5 -60 -76 -135 -159 -238 -266
-319 -374 -390 -524 -52 -108 -89 -251 -80 -312 15 -114 109 -216 216 -236 29
-5 43 -1 70 19 19 14 168 159 330 323 162 164 333 329 380 366 186 148 369
231 535 243 80 6 115 2 335 -37 118 -21 289 -126 396 -243 115 -127 184 -251
211 -383 22 -110 22 -350 -1 -469 -53 -281 -188 -565 -407 -855 -108 -144
-274 -332 -417 -474 l-110 -108 -241 149 -241 150 123 113 c309 285 475 502
548 720 28 82 32 109 33 200 0 115 -20 206 -54 240 -24 24 -108 50 -186 57
-47 4 -79 0 -132 -16 -134 -41 -235 -136 -466 -445 -166 -221 -248 -313 -345
-386 -177 -133 -381 -157 -631 -74 -156 52 -264 118 -381 234 -124 123 -170
211 -201 381 -30 167 -30 402 0 524 66 267 208 546 408 806 33 42 147 173 254
292 171 189 197 214 212 204 10 -7 96 -75 192 -152z m-863 -136 c91 -170 92
-171 77 -202 -23 -47 -298 -541 -306 -549 -6 -5 -326 -48 -363 -48 -16 0 -7
32 52 182 32 82 56 129 67 132 9 2 86 15 170 27 83 12 152 26 152 31 0 5 -34
66 -75 137 -41 71 -75 132 -75 135 0 13 192 326 200 326 4 0 50 -77 101 -171z
m19198 -794 l313 -525 -55 -62 c-404 -457 -2095 -2333 -2102 -2332 -6 1 -101
195 -211 430 l-202 429 167 160 c91 87 208 200 259 250 l92 90 -290 499 c-160
275 -292 501 -293 502 -1 0 -144 -32 -317 -72 -173 -40 -322 -73 -330 -73 -15
-1 -507 686 -497 695 2 3 710 123 1573 268 863 145 1571 265 1574 265 3 1 146
-235 319 -524z m-13997 -12462 c236 -141 432 -263 435 -270 6 -16 -547 -2223
-558 -2223 -8 0 -628 395 -642 409 -5 5 19 103 57 228 36 121 66 226 65 234 0
16 -576 446 -592 441 -5 -2 -104 -66 -218 -144 l-209 -140 -82 73 c-203 183
-403 370 -403 379 0 11 1692 1270 1707 1270 5 0 203 -116 440 -257z m9446 151
c42 -8 107 -28 143 -43 214 -90 470 -333 633 -602 65 -107 141 -272 162 -349
25 -92 26 -320 1 -410 -23 -86 -77 -199 -131 -274 -55 -77 -322 -326 -441
-411 -185 -133 -411 -229 -618 -261 -141 -23 -355 -15 -452 16 -212 68 -410
219 -577 440 -101 134 -202 334 -223 441 -41 212 -43 405 -5 553 45 176 109
270 279 412 332 278 626 422 996 488 106 19 142 19 233 0z m-7317 -1169 c172
-36 315 -68 318 -70 2 -3 -52 -319 -122 -703 -70 -383 -127 -718 -127 -743 0
-150 233 -278 411 -226 64 19 126 67 145 113 28 68 113 490 224 1119 28 160
54 297 58 306 6 14 48 6 324 -57 175 -40 321 -75 326 -78 10 -6 -45 -457 -84
-686 -71 -426 -191 -762 -344 -969 -126 -170 -260 -236 -502 -248 -276 -13
-700 87 -920 218 -147 87 -247 194 -314 334 -46 96 -66 184 -68 290 -1 84 11
138 163 778 140 585 167 687 182 687 10 0 158 -29 330 -65z m4560 3 c6 -24 34
-130 63 -235 46 -167 51 -193 37 -197 -18 -6 -561 -136 -565 -136 -2 0 67
-351 153 -779 86 -429 153 -782 150 -785 -9 -9 -680 -143 -683 -137 -2 3 -72
355 -156 781 -84 426 -156 778 -159 782 -3 3 -125 -22 -270 -58 -146 -35 -266
-62 -267 -61 -6 6 -107 467 -103 471 6 6 1741 394 1766 395 18 1 24 -7 34 -41z"/>
<path d="M12245 23005 c-161 -44 -283 -150 -369 -321 -46 -93 -72 -182 -100
-354 -90 -535 -39 -875 171 -1135 176 -217 566 -232 903 -35 85 50 119 90 175
205 78 162 100 303 92 585 -5 188 -45 567 -68 655 -40 148 -179 289 -356 360
-129 52 -337 70 -448 40z"/>
<path d="M17135 20888 c-203 -376 -380 -702 -393 -725 l-23 -42 73 -49 c252
-169 538 -281 723 -284 146 -2 230 34 364 158 131 121 231 268 302 443 54 135
78 251 86 407 5 116 3 139 -15 201 -38 123 -124 229 -259 319 -58 38 -467 254
-482 254 -4 0 -173 -307 -376 -682z"/>
<path d="M12195 19244 c-278 -20 -843 -80 -1000 -105 -259 -42 -459 -151 -515
-281 -31 -73 -25 -187 15 -276 26 -57 58 -91 379 -401 552 -533 727 -717 1116
-1182 169 -201 211 -274 218 -371 6 -86 -4 -124 -49 -173 -52 -56 -108 -73
-184 -56 -30 7 -65 21 -79 32 -27 21 -914 1008 -1090 1212 -130 153 -324 342
-464 454 -393 316 -743 446 -1044 389 -228 -44 -554 -200 -870 -418 -472 -325
-974 -803 -1254 -1195 -202 -283 -251 -465 -158 -589 56 -76 159 -126 566
-275 440 -161 677 -269 1083 -493 376 -208 582 -387 619 -538 7 -33 -23 -134
-53 -177 -47 -65 -124 -78 -224 -37 -31 13 -130 68 -220 123 -574 351 -682
414 -859 503 -291 147 -508 229 -738 277 -168 35 -392 37 -515 4 -171 -45
-323 -145 -424 -277 -66 -87 -237 -432 -329 -664 -168 -424 -239 -734 -249
-1086 -5 -154 -2 -207 11 -275 40 -200 124 -292 326 -359 155 -50 440 -64 834
-39 237 15 502 7 621 -19 278 -62 583 -198 907 -405 929 -594 1587 -1572 1702
-2528 15 -125 18 -188 17 -401 -1 -116 -1 -118 -31 -151 -38 -44 -89 -57 -213
-57 -188 0 -336 55 -721 269 -277 155 -327 177 -501 225 -352 96 -704 136
-1194 136 -496 0 -968 -49 -1213 -126 -88 -28 -108 -48 -108 -110 0 -127 79
-226 435 -544 324 -290 387 -363 486 -565 32 -66 95 -217 140 -335 100 -265
162 -398 234 -504 90 -133 115 -156 190 -177 222 -61 753 -44 890 29 51 28
157 129 400 383 77 80 167 164 199 185 l59 39 3366 -4 3366 -4 32 -24 c45 -35
66 -85 61 -148 -3 -38 -22 -89 -66 -181 -64 -133 -74 -177 -51 -227 12 -27 50
-37 209 -57 474 -57 1022 141 1548 563 70 56 199 171 286 257 166 162 369 385
364 400 -4 10 -257 228 -408 351 -484 395 -904 635 -1281 733 -196 50 -426 75
-571 62 l-75 -7 -24 -42 c-36 -62 -32 -170 10 -301 41 -130 42 -205 4 -264
-25 -38 -31 -42 -81 -48 -185 -23 -391 46 -472 158 -29 39 -30 46 -30 142 0
120 23 318 50 434 30 124 90 324 200 657 138 417 197 653 265 1050 110 648
134 1324 70 1965 -168 1654 -908 3276 -2141 4685 -279 319 -439 462 -639 570
-172 92 -384 159 -606 190 -110 15 -431 27 -534 19z m1766 -7279 c211 -37 390
-130 542 -280 323 -321 399 -807 189 -1208 -221 -422 -711 -633 -1172 -506
-322 89 -587 341 -689 653 -41 124 -53 200 -52 336 0 262 93 498 274 696 225
246 580 367 908 309z"/>
<path d="M21645 17644 c-5 -2 -300 -60 -655 -129 -354 -70 -646 -127 -647
-129 -2 -1 84 -159 190 -350 l192 -348 398 403 c350 356 547 561 536 558 -2 0
-8 -2 -14 -5z"/>
<path d="M7552 4683 c-156 -129 -281 -240 -280 -245 4 -12 391 -288 396 -283
5 5 172 758 169 761 -1 2 -130 -103 -285 -233z"/>
<path d="M17023 4975 c-184 -40 -325 -192 -359 -386 -22 -125 -9 -175 92 -374
130 -255 177 -330 268 -421 132 -132 253 -172 426 -142 200 36 337 145 384
307 29 100 15 248 -33 341 -41 82 -201 362 -237 415 -148 224 -322 307 -541
260z"/>
</g>
</svg>
