<svg width="16" height="16" viewBox="0 0 16 16" fill="none" xmlns="http://www.w3.org/2000/svg">
<path fill-rule="evenodd" clip-rule="evenodd" d="M2.4 0.800011C1.76348 0.800011 1.15303 1.05287 0.702943 1.50295C0.252856 1.95304 0 2.56349 0 3.20001V12.8C0 13.4365 0.252856 14.047 0.702943 14.497C1.15303 14.9471 1.76348 15.2 2.4 15.2H7.99999C8.63651 15.2 9.24696 14.9471 9.69704 14.497C10.1471 14.047 10.4 13.4365 10.4 12.8V11.2C10.4 10.7582 10.0418 10.4 9.59999 10.4C9.15816 10.4 8.79999 10.7582 8.79999 11.2V12.8C8.79999 13.0122 8.7157 13.2156 8.56567 13.3657C8.41564 13.5157 8.21216 13.6 7.99999 13.6H2.4C2.18782 13.6 1.98434 13.5157 1.83431 13.3657C1.68428 13.2156 1.6 13.0122 1.6 12.8V3.20001C1.6 2.98783 1.68428 2.78435 1.83431 2.63432C1.98434 2.48429 2.18782 2.40001 2.4 2.40001H7.99999C8.21216 2.40001 8.41564 2.48429 8.56567 2.63432C8.7157 2.78435 8.79999 2.98783 8.79999 3.20001V4.8C8.79999 5.24183 9.15816 5.6 9.59999 5.6C10.0418 5.6 10.4 5.24183 10.4 4.8V3.20001C10.4 2.56349 10.1471 1.95304 9.69704 1.50295C9.24696 1.05287 8.63651 0.800011 7.99999 0.800011H2.4ZM13.3657 5.03432C13.0532 4.7219 12.5467 4.7219 12.2343 5.03432C11.9219 5.34674 11.9219 5.85327 12.2343 6.16569L13.2686 7.2H3.99999C3.55817 7.2 3.2 7.55817 3.2 8C3.2 8.44183 3.55817 8.8 3.99999 8.8H13.2686L12.2343 9.83431C11.9219 10.1467 11.9219 10.6533 12.2343 10.9657C12.5467 11.2781 13.0532 11.2781 13.3657 10.9657L15.7615 8.56989C15.7764 8.55516 15.7908 8.53982 15.8046 8.52389C15.9108 8.40159 15.9737 8.25474 15.9933 8.10334C16.0001 8.05091 16.0017 7.9982 15.9982 7.94598C15.9856 7.75961 15.9081 7.57678 15.7657 7.43432L13.3657 5.03432Z" fill="#888888"/>
</svg>
